<?xml version="1.0" standalone="no"?>
<!DOCTYPE svg PUBLIC "-//W3C//DTD SVG 20010904//EN"
 "http://www.w3.org/TR/2001/REC-SVG-20010904/DTD/svg10.dtd">
<svg version="1.0" xmlns="http://www.w3.org/2000/svg"
 width="60.000000pt" height="60.000000pt" viewBox="0 0 60.000000 60.000000"
 preserveAspectRatio="xMidYMid meet">

<g transform="translate(0.000000,60.000000) scale(0.100000,-0.100000)"
fill="#000000" stroke="none">
<path d="M1 553 c0 -35 2 -43 9 -28 9 23 47 60 70 68 8 3 -6 6 -32 6 l-48 1 1
-47z"/>
<path d="M537 580 c17 -10 39 -32 47 -47 l15 -28 1 48 0 47 -47 0 -48 0 32
-20z"/>
<path d="M237 422 c-21 -22 -22 -52 -3 -77 16 -22 96 -26 120 -5 22 17 20 63
-2 83 -26 23 -94 22 -115 -1z m81 -19 c-10 -2 -28 -2 -40 0 -13 2 -5 4 17 4
22 1 32 -1 23 -4z m7 -43 c-3 -5 -15 -10 -26 -10 -10 0 -19 5 -19 10 0 6 12
10 26 10 14 0 23 -4 19 -10z"/>
<path d="M142 372 c-20 -16 -23 -25 -20 -82 l3 -63 70 -44 c88 -55 112 -55
200 0 l70 44 3 66 c4 81 -6 85 -88 32 -66 -42 -88 -43 -151 -9 -42 23 -48 30
-43 50 7 29 -11 31 -44 6z m298 -87 c0 -30 -6 -39 -52 -70 -71 -48 -104 -45
-90 8 4 16 116 96 135 97 4 0 7 -16 7 -35z"/>
<path d="M580 67 c-9 -18 -30 -40 -50 -49 l-35 -18 53 0 52 0 0 50 c0 28 -1
50 -2 50 -2 0 -10 -15 -18 -33z"/>
<path d="M0 48 l0 -48 53 0 52 1 -32 14 c-18 8 -42 29 -53 47 l-20 33 0 -47z"/>
</g>
</svg>
